PathFileType	4	(X/Y/Z)	C:\Users\willi\Documents\UniDataLokal\DATA_Hans_PhD\TD04\B\3DGAIT_B_W12\marker_experimental.trc
DataRate	CameraRate	NumFrames	NumMarkers	Units	OrigDataRate	OrigDataStartFrame	OrigNumFrames
100.000000	100.000000	4	97	mm	100.000000	23	191
Frame#	Time	RBAK			C7			CLAV			T10			STRN			RASI			RPSI			LPSI			LASI			LPELV			RPELV			RTHI1			RTHI2			RTHI3			RTHI			RKNE			RKNEM			RPAT			RLKNEL			RLKNEM			RLPAT			RTIB1			RTIB2			RTIB3			RTIB			RANK			RANKM			RHEEL			RTOE			RM5			LTHI1			LTHI2			LTHI3			LTHI			LKNE			LKNEM			LPAT			LLKNE			LLKNEM			LLPAT			LTIB1			LTIB2			LTIB3			LTIB			LANK			LANKM			LHEEL			LTOE			LM5			*49			*50			*51			*52			*53			*54			*55			*56			*57			*58			*59			*60			*61			*62			*63			*64			*65			*66			*67			*68			*69			*70			*71			*72			*73			*74			*75			*76			*77			*78			*79			*80			*81			*82			*83			*84			*85			*86			*87			*88			*89			*90			*91			*92			*93			*94			*95			*96			
		X1	Y1	Z1	X2	Y2	Z2	X3	Y3	Z3	X4	Y4	Z4	X5	Y5	Z5	X6	Y6	Z6	X7	Y7	Z7	X8	Y8	Z8	X9	Y9	Z9	X10	Y10	Z10	X11	Y11	Z11	X12	Y12	Z12	X13	Y13	Z13	X14	Y14	Z14	X15	Y15	Z15	X16	Y16	Z16	X17	Y17	Z17	X18	Y18	Z18	X19	Y19	Z19	X20	Y20	Z20	X21	Y21	Z21	X22	Y22	Z22	X23	Y23	Z23	X24	Y24	Z24	X25	Y25	Z25	X26	Y26	Z26	X27	Y27	Z27	X28	Y28	Z28	X29	Y29	Z29	X30	Y30	Z30	X31	Y31	Z31	X32	Y32	Z32	X33	Y33	Z33	X34	Y34	Z34	X35	Y35	Z35	X36	Y36	Z36	X37	Y37	Z37	X38	Y38	Z38	X39	Y39	Z39	X40	Y40	Z40	X41	Y41	Z41	X42	Y42	Z42	X43	Y43	Z43	X44	Y44	Z44	X45	Y45	Z45	X46	Y46	Z46	X47	Y47	Z47	X48	Y48	Z48	X49	Y49	Z49	X50	Y50	Z50	X51	Y51	Z51	X52	Y52	Z52	X53	Y53	Z53	X54	Y54	Z54	X55	Y55	Z55	X56	Y56	Z56	X57	Y57	Z57	X58	Y58	Z58	X59	Y59	Z59	X60	Y60	Z60	X61	Y61	Z61	X62	Y62	Z62	X63	Y63	Z63	X64	Y64	Z64	X65	Y65	Z65	X66	Y66	Z66	X67	Y67	Z67	X68	Y68	Z68	X69	Y69	Z69	X70	Y70	Z70	X71	Y71	Z71	X72	Y72	Z72	X73	Y73	Z73	X74	Y74	Z74	X75	Y75	Z75	X76	Y76	Z76	X77	Y77	Z77	X78	Y78	Z78	X79	Y79	Z79	X80	Y80	Z80	X81	Y81	Z81	X82	Y82	Z82	X83	Y83	Z83	X84	Y84	Z84	X85	Y85	Z85	X86	Y86	Z86	X87	Y87	Z87	X88	Y88	Z88	X89	Y89	Z89	X90	Y90	Z90	X91	Y91	Z91	X92	Y92	Z92	X93	Y93	Z93	X94	Y94	Z94	X95	Y95	Z95	X96	Y96	Z96	X97	Y97	Z97	

24	0.23	-1285.92431640625	1304.62158203125	350.6708679199218	-1257.950073242188	1348.191528320312	249.1575622558593	-1145.08203125	1266.03857421875	254.3417663574218	-1279.863525390625	969.2532958984376	238.5571136474609	-1092.652099609375	1015.814147949219	249.6346740722656	-1136.249877929688	862.7075195312501	368.9421997070312	-1303.21484375	898.5182495117189	275.8307495117187	-1295.46142578125	896.3139648437501	188.7941284179687	-1100.48974609375	861.8641357421876	160.2746887207031	-1186.64697265625	934.7706909179689	97.06824493408196	-1239.501708984375	938.3473510742189	390.6881713867187	-1320.3671875	643.4326171875001	351.2492370605468	-1301.471069335938	578.4610595703126	378.0225830078124	-1339.352416992188	540.4534912109376	335.6987304687499	-1259.21337890625	532.1990966796876	421.6047058105468	-1288.698852539062	444.9575500488282	363.4944152832031	-1288.296997070312	436.2152099609376	234.7832794189452	-1233.838989257812	417.1194458007813	305.1744079589843	-1308.718872070312	414.1151733398438	357.3617553710937	-1327.2041015625	399.0173950195313	234.6097259521484	-1283.774291992188	363.3775329589844	310.4164733886718	-1327.381591796875	268.5322265625001	303.3430480957031	-1372.363403320312	236.7955627441407	341.8042907714843	-1374.656616210938	184.6083984375001	295.6870117187499	-1446.79541015625	206.2940979003907	369.5536193847655	-1472.145629882812	94.5097198486329	309.6491088867186	-1435.906005859375	100.6016159057618	239.9510192871093	-1517.465209960938	68.21166229248057	260.2570800781249	-1346.332885742188	39.62231445312509	327.0535583496093	-1382.474731445312	22.09393501281747	356.9431457519531	-1170.156005859375	590.6529541015626	94.52922821044915	-1112.3984375	559.0219116210939	85.51590728759759	-1133.175170898438	501.2924804687501	113.4391555786132	-1063.598999023438	540.5533447265626	57.05516433715814	-1044.796142578125	445.9265136718751	117.1682357788085	-1082.49267578125	428.7115783691407	237.3455047607421	-997.8905639648438	463.2926940917969	196.4779815673828	-1052.5986328125	410.1970520019532	111.6509552001952	-1069.492309570312	390.2389831542969	230.1707153320312	-1000.490600585938	394.1941223144532	172.0711669921874	-961.1130981445312	271.5971679687501	169.7161102294921	-959.6792602539062	217.2075805664063	126.8094940185546	-931.6187744140625	180.5246582031251	171.1730651855468	-1006.385864257812	180.9644775390626	77.2307510375976	-946.6643676757812	78.35062408447271	135.6119689941406	-925.1647338867188	97.51727294921881	205.5138244628906	-974.1796875	30.28410720825201	181.8623657226562	-806.5107421875	84.15885925292973	139.6626586914062	-821.4757690429688	53.01353454589849	107.6174697875976	nan	nan	nan	nan	nan	nan	nan	nan	nan	nan	nan	nan	nan	nan	nan	nan	nan	nan	nan	nan	nan	nan	nan	nan	nan	nan	nan	nan	nan	nan	nan	nan	nan	nan	nan	nan	nan	nan	nan	nan	nan	nan	nan	nan	nan	nan	nan	nan	nan	nan	nan	nan	nan	nan	nan	nan	nan	nan	nan	nan	nan	nan	nan	nan	nan	nan	nan	nan	nan	nan	nan	nan	nan	nan	nan	nan	nan	nan	nan	nan	nan	nan	nan	nan	nan	nan	nan	nan	nan	nan	nan	nan	nan	nan	nan	nan	nan	nan	nan	nan	nan	nan	nan	nan	nan	nan	nan	nan	nan	nan	nan	nan	nan	nan	nan	nan	nan	nan	nan	nan	nan	nan	nan	nan	nan	nan	nan	nan	nan	nan	nan	nan	nan	nan	nan	nan	nan	nan	nan	nan	nan	nan	nan	nan	
25	0.24	-1275.2744140625	1304.30322265625	349.1694335937499	-1247.468994140625	1347.865234375	247.6081542968749	-1134.4560546875	1266.141723632812	252.7570800781249	-1268.673706054688	968.9863281250001	237.9281463623046	-1081.52294921875	1015.674133300781	248.4177551269531	-1124.795166015625	862.2535400390626	368.0646362304687	-1291.89453125	898.3657836914064	275.2611999511718	-1284.233520507812	896.3355102539064	188.1551361083984	-1089.2001953125	861.7553710937501	159.378433227539	-1175.5380859375	934.7080688476564	96.16592407226555	-1227.951538085938	938.1055908203126	389.9483337402343	-1310.231323242188	643.8083496093751	350.3680419921874	-1291.86474609375	578.7747802734376	377.2599792480468	-1329.983032226562	540.9913330078126	334.9229736328124	-1250.04443359375	532.3082885742189	421.0225524902343	-1280.0888671875	445.2261962890626	363.1374816894531	-1279.855834960938	436.2449645996094	234.5165710449218	-1225.372192382812	416.3796997070313	304.8537902832031	-1300.500610351562	414.6214904785157	357.1456909179687	-1319.303833007812	399.5859985351563	234.4306335449218	-1276.406982421875	363.2114868164063	310.3718566894531	-1321.80126953125	269.2859191894532	303.7423095703124	-1367.6982421875	238.5377655029298	342.0897216796874	-1371.032104492188	186.284652709961	296.1527709960937	-1442.647583007812	209.577362060547	369.9760437011718	-1470.3369140625	98.1375045776368	310.4042053222655	-1434.003662109375	103.3602218627931	240.7347412109374	-1516.271606445312	72.96632385253916	261.1789550781249	-1345.9296875	39.7928009033204	327.1699829101562	-1382.073852539062	22.58055496215829	356.9070434570312	-1158.558715820312	590.8893432617189	93.75725555419915	-1100.94775390625	559.1444702148439	85.10974121093743	-1121.650390625	501.4896850585938	112.8642196655273	-1051.735107421875	540.6657714843751	57.10284423828119	-1033.39453125	446.2177734375001	117.3793869018554	-1070.905151367188	429.3666992187501	237.5516967773437	-987.36669921875	463.7691650390626	196.8724822998046	-1041.4248046875	410.2974548339844	111.6883926391601	-1058.683349609375	390.5860290527344	230.4571228027343	-990.331787109375	393.9069213867188	172.4679565429687	-952.92626953125	270.1596679687501	170.3230285644531	-951.99853515625	215.7220916748047	127.3507080078124	-925.0768432617188	178.5055389404297	171.9018402099609	-999.2980346679688	180.3332061767579	77.47328948974604	-942.263671875	76.65045166015631	135.8566894531249	-920.4940185546875	95.15992736816412	205.9044494628906	-971.4440307617188	29.85314178466803	181.9130249023437	-802.51904296875	78.17497253417973	140.2362518310546	-818.4176025390625	47.57262802124028	108.2750930786132	nan	nan	nan	nan	nan	nan	nan	nan	nan	nan	nan	nan	nan	nan	nan	nan	nan	nan	nan	nan	nan	nan	nan	nan	nan	nan	nan	nan	nan	nan	nan	nan	nan	nan	nan	nan	nan	nan	nan	nan	nan	nan	nan	nan	nan	nan	nan	nan	nan	nan	nan	nan	nan	nan	nan	nan	nan	nan	nan	nan	nan	nan	nan	nan	nan	nan	nan	nan	nan	nan	nan	nan	nan	nan	nan	nan	nan	nan	nan	nan	nan	nan	nan	nan	nan	nan	nan	nan	nan	nan	nan	nan	nan	nan	nan	nan	nan	nan	nan	nan	nan	nan	nan	nan	nan	nan	nan	nan	nan	nan	nan	nan	nan	nan	nan	nan	nan	nan	nan	nan	nan	nan	nan	nan	nan	nan	nan	nan	nan	nan	nan	nan	nan	nan	nan	nan	nan	nan	nan	nan	nan	nan	nan	nan	
26	0.25	-1264.526123046875	1304.14404296875	347.5874023437499	-1236.892700195312	1347.703125	245.9861755371093	-1123.735717773438	1266.39501953125	251.0932922363281	-1257.368286132812	968.9075317382814	237.2698516845702	-1070.22705078125	1015.763000488281	247.1065063476562	-1113.072387695312	861.9730834960939	367.0095825195312	-1280.405029296875	898.4110107421876	274.7069702148437	-1272.900390625	896.5847778320314	187.4926757812499	-1077.815673828125	861.8822021484376	158.3456115722656	-1164.314453125	934.9136352539064	95.17102813720696	-1216.028198242188	938.0776367187501	389.1490478515624	-1299.70556640625	644.1700439453126	349.4825744628906	-1281.7529296875	579.1242675781251	376.4557800292968	-1320.138793945312	541.5391235351564	334.1414184570312	-1240.34814453125	532.5269165039064	420.3753356933593	-1270.856567382812	445.5608520507813	362.7557983398437	-1270.987060546875	436.3837280273438	234.2360534667968	-1216.208740234375	415.6917724609376	304.5062255859374	-1291.671142578125	415.2146606445313	356.9548339843749	-1310.913940429688	400.2528686523438	234.296661376953	-1268.465209960938	363.0730285644532	310.4104614257812	-1315.847290039062	270.1437377929688	304.2303466796874	-1362.61279296875	240.5347137451173	342.4665222167968	-1367.029296875	188.2037506103516	296.7666320800781	-1438.099365234375	213.2168579101563	370.4700622558593	-1468.227661132812	102.163055419922	311.2789611816405	-1431.75390625	106.4313278198243	241.6783142089843	-1514.752807617188	78.22283172607432	262.2441101074218	-1345.444702148438	39.9770050048829	327.3273620605468	-1381.561401367188	23.1568202972413	356.9210510253906	-1146.832641601562	591.3638916015626	92.91480255126946	-1089.329711914062	559.5239868164064	84.67392730712884	-1110.03515625	501.9194641113282	112.2396621704101	-1039.780517578125	541.0106811523439	57.10089874267572	-1021.884948730469	446.7178344726563	117.6137237548828	-1059.665771484375	430.1049499511719	237.6224212646484	-976.7998657226562	464.3437194824219	197.3657989501953	-1030.160278320312	410.6011962890626	111.7346191406249	-1048.3271484375	390.9856567382813	230.5774230957031	-980.2023315429688	393.7060241699219	172.9101562499999	-945.1158447265625	268.6874694824219	170.9750061035156	-944.711669921875	214.224594116211	127.9185714721679	-919.1221923828125	176.4151153564454	172.6787109374999	-992.4630126953125	179.8437042236329	77.62719726562494	-938.5836791992188	74.97650146484381	136.0451049804687	-916.5453491210938	92.76549530029303	206.2488708496093	-969.6245727539062	29.63784217834479	181.9007720947265	-799.1185913085938	71.7362442016602	140.7786254882812	-816.1763305664062	41.76120376586919	108.860237121582	nan	nan	nan	nan	nan	nan	nan	nan	nan	nan	nan	nan	nan	nan	nan	nan	nan	nan	nan	nan	nan	nan	nan	nan	nan	nan	nan	nan	nan	nan	nan	nan	nan	nan	nan	nan	nan	nan	nan	nan	nan	nan	nan	nan	nan	nan	nan	nan	nan	nan	nan	nan	nan	nan	nan	nan	nan	nan	nan	nan	nan	nan	nan	nan	nan	nan	nan	nan	nan	nan	nan	nan	nan	nan	nan	nan	nan	nan	nan	nan	nan	nan	nan	nan	nan	nan	nan	nan	nan	nan	nan	nan	nan	nan	nan	nan	nan	nan	nan	nan	nan	nan	nan	nan	nan	nan	nan	nan	nan	nan	nan	nan	nan	nan	nan	nan	nan	nan	nan	nan	nan	nan	nan	nan	nan	nan	nan	nan	nan	nan	nan	nan	nan	nan	nan	nan	nan	nan	nan	nan	nan	nan	nan	nan	
27	0.26	-1253.691162109375	1304.14306640625	345.9323425292968	-1226.228759765625	1347.703491210938	244.2996063232421	-1112.92919921875	1266.793090820312	249.3605499267578	-1245.96484375	969.0128784179689	236.579620361328	-1058.781494140625	1016.073425292969	245.7189636230468	-1101.112060546875	861.8618164062501	365.7864379882812	-1268.768310546875	898.6425170898439	274.1637878417968	-1261.4755859375	897.0528564453126	186.8037719726562	-1066.347045898438	862.2375488281251	157.1898193359374	-1152.972534179688	935.3825683593751	94.09199523925774	-1203.761840820312	938.2545166015626	388.2883300781249	-1288.761596679688	644.4620971679689	348.5931091308593	-1271.08203125	579.4584960937501	375.6166992187499	-1309.7431640625	542.0260620117189	333.3599548339843	-1230.045532226562	532.8194580078126	419.6729736328124	-1260.899780273438	445.9142150878907	362.3624267578124	-1261.558227539062	436.5812683105469	233.9587860107421	-1206.225830078125	415.0081787109376	304.1613769531249	-1282.1279296875	415.8479309082032	356.7972717285156	-1301.896484375	400.9588623046876	234.2198486328124	-1259.842529296875	362.9158630371094	310.5517883300781	-1309.432983398438	271.0736999511719	304.8111267089843	-1357.014892578125	242.7696838378907	342.9410705566406	-1362.552368164062	190.3465881347657	297.5398559570312	-1433.063354492188	217.2141876220704	371.0159301757811	-1465.731201171875	106.5956802368165	312.2606506347655	-1429.055053710938	109.8101119995118	242.7814636230468	-1512.796752929688	84.0062255859376	263.4258728027343	-1344.861328125	40.15566635131844	327.5256347656249	-1380.930419921875	23.82323074340829	356.9808959960937	-1135.0341796875	592.0700073242189	91.98083496093743	-1077.6064453125	560.1424560546876	84.19197082519524	-1098.40673828125	502.5682067871094	111.5363006591796	-1027.663452148438	541.5142211914064	57.11996459960931	-1010.356750488281	447.3890991210938	117.8458023071288	-1049.018188476562	430.8991394042969	237.4243011474609	-966.2957153320312	464.9718017578126	197.9505157470703	-1018.881103515625	411.0791931152344	111.7689666748046	-1038.611328125	391.4532470703126	230.4101867675781	-970.167236328125	393.5863647460938	173.3851165771484	-937.6478271484375	267.2406311035157	171.6551513671874	-937.73046875	212.7910919189454	128.4960784912109	-913.6438598632812	174.3623504638672	173.4863281249999	-985.688720703125	179.5420227050782	77.63951110839838	-935.3707885742188	73.44884490966803	136.1617584228515	-913.1314697265625	90.48300170898443	206.5415344238281	-968.3900756835938	29.6802768707276	181.8072509765624	-795.987548828125	65.26293945312504	141.3047790527343	-814.3992309570312	35.97096633911138	109.3569335937499	nan	nan	nan	nan	nan	nan	nan	nan	nan	nan	nan	nan	nan	nan	nan	nan	nan	nan	nan	nan	nan	nan	nan	nan	nan	nan	nan	nan	nan	nan	nan	nan	nan	nan	nan	nan	nan	nan	nan	nan	nan	nan	nan	nan	nan	nan	nan	nan	nan	nan	nan	nan	nan	nan	nan	nan	nan	nan	nan	nan	nan	nan	nan	nan	nan	nan	nan	nan	nan	nan	nan	nan	nan	nan	nan	nan	nan	nan	nan	nan	nan	nan	nan	nan	nan	nan	nan	nan	nan	nan	nan	nan	nan	nan	nan	nan	nan	nan	nan	nan	nan	nan	nan	nan	nan	nan	nan	nan	nan	nan	nan	nan	nan	nan	nan	nan	nan	nan	nan	nan	nan	nan	nan	nan	nan	nan	nan	nan	nan	nan	nan	nan	nan	nan	nan	nan	nan	nan	nan	nan	nan	nan	nan	nan	
